<?xml version="1.0" encoding="utf-8" standalone="no"?>
<!DOCTYPE svg PUBLIC "-//W3C//DTD SVG 1.1//EN"
  "http://www.w3.org/Graphics/SVG/1.1/DTD/svg11.dtd">
<svg xmlns:xlink="http://www.w3.org/1999/xlink" width="821.952pt" height="494.784pt" viewBox="0 0 821.952 494.784" xmlns="http://www.w3.org/2000/svg" version="1.1">
 <metadata>
  <rdf:RDF xmlns:dc="http://purl.org/dc/elements/1.1/" xmlns:cc="http://creativecommons.org/ns#" xmlns:rdf="http://www.w3.org/1999/02/22-rdf-syntax-ns#">
   <cc:Work>
    <dc:type rdf:resource="http://purl.org/dc/dcmitype/StillImage"/>
    <dc:date>2024-05-06T11:56:36.420068</dc:date>
    <dc:format>image/svg+xml</dc:format>
    <dc:creator>
     <cc:Agent>
      <dc:title>Matplotlib v3.8.4, https://matplotlib.org/</dc:title>
     </cc:Agent>
    </dc:creator>
   </cc:Work>
  </rdf:RDF>
 </metadata>
 <defs>
  <style type="text/css">*{stroke-linejoin: round; stroke-linecap: butt}</style>
 </defs>
 <g id="figure_1">
  <g id="patch_1">
   <path d="M 0 494.784 
L 821.952 494.784 
L 821.952 0 
L 0 0 
z
" style="fill: #ffffff"/>
  </g>
  <g id="axes_1">
   <g id="patch_2">
    <path d="M 102.744 440.35776 
L 739.7568 440.35776 
L 739.7568 59.37408 
L 102.744 59.37408 
z
" style="fill: #ffffff"/>
   </g>
   <g id="matplotlib.axis_1">
    <g id="xtick_1">
     <g id="line2d_1">
      <defs>
       <path id="m4f835b10be" d="M 0 0 
L 0 3.5 
" style="stroke: #000000; stroke-width: 0.8"/>
      </defs>
      <g>
       <use xlink:href="#m4f835b10be" x="131.699127" y="440.35776" style="stroke: #000000; stroke-width: 0.8"/>
      </g>
     </g>
     <g id="text_1">
      <!-- 0 -->
      <g transform="translate(128.517877 454.956198) scale(0.1 -0.1)">
       <defs>
        <path id="DejaVuSans-30" d="M 2034 4250 
Q 1547 4250 1301 3770 
Q 1056 3291 1056 2328 
Q 1056 1369 1301 889 
Q 1547 409 2034 409 
Q 2525 409 2770 889 
Q 3016 1369 3016 2328 
Q 3016 3291 2770 3770 
Q 2525 4250 2034 4250 
z
M 2034 4750 
Q 2819 4750 3233 4129 
Q 3647 3509 3647 2328 
Q 3647 1150 3233 529 
Q 2819 -91 2034 -91 
Q 1250 -91 836 529 
Q 422 1150 422 2328 
Q 422 3509 836 4129 
Q 1250 4750 2034 4750 
z
" transform="scale(0.015625)"/>
       </defs>
       <use xlink:href="#DejaVuSans-30"/>
      </g>
     </g>
    </g>
    <g id="xtick_2">
     <g id="line2d_2">
      <g>
       <use xlink:href="#m4f835b10be" x="207.201415" y="440.35776" style="stroke: #000000; stroke-width: 0.8"/>
      </g>
     </g>
     <g id="text_2">
      <!-- 100 -->
      <g transform="translate(197.657665 454.956198) scale(0.1 -0.1)">
       <defs>
        <path id="DejaVuSans-31" d="M 794 531 
L 1825 531 
L 1825 4091 
L 703 3866 
L 703 4441 
L 1819 4666 
L 2450 4666 
L 2450 531 
L 3481 531 
L 3481 0 
L 794 0 
L 794 531 
z
" transform="scale(0.015625)"/>
       </defs>
       <use xlink:href="#DejaVuSans-31"/>
       <use xlink:href="#DejaVuSans-30" x="63.623047"/>
       <use xlink:href="#DejaVuSans-30" x="127.246094"/>
      </g>
     </g>
    </g>
    <g id="xtick_3">
     <g id="line2d_3">
      <g>
       <use xlink:href="#m4f835b10be" x="282.703702" y="440.35776" style="stroke: #000000; stroke-width: 0.8"/>
      </g>
     </g>
     <g id="text_3">
      <!-- 200 -->
      <g transform="translate(273.159952 454.956198) scale(0.1 -0.1)">
       <defs>
        <path id="DejaVuSans-32" d="M 1228 531 
L 3431 531 
L 3431 0 
L 469 0 
L 469 531 
Q 828 903 1448 1529 
Q 2069 2156 2228 2338 
Q 2531 2678 2651 2914 
Q 2772 3150 2772 3378 
Q 2772 3750 2511 3984 
Q 2250 4219 1831 4219 
Q 1534 4219 1204 4116 
Q 875 4013 500 3803 
L 500 4441 
Q 881 4594 1212 4672 
Q 1544 4750 1819 4750 
Q 2544 4750 2975 4387 
Q 3406 4025 3406 3419 
Q 3406 3131 3298 2873 
Q 3191 2616 2906 2266 
Q 2828 2175 2409 1742 
Q 1991 1309 1228 531 
z
" transform="scale(0.015625)"/>
       </defs>
       <use xlink:href="#DejaVuSans-32"/>
       <use xlink:href="#DejaVuSans-30" x="63.623047"/>
       <use xlink:href="#DejaVuSans-30" x="127.246094"/>
      </g>
     </g>
    </g>
    <g id="xtick_4">
     <g id="line2d_4">
      <g>
       <use xlink:href="#m4f835b10be" x="358.20599" y="440.35776" style="stroke: #000000; stroke-width: 0.8"/>
      </g>
     </g>
     <g id="text_4">
      <!-- 300 -->
      <g transform="translate(348.66224 454.956198) scale(0.1 -0.1)">
       <defs>
        <path id="DejaVuSans-33" d="M 2597 2516 
Q 3050 2419 3304 2112 
Q 3559 1806 3559 1356 
Q 3559 666 3084 287 
Q 2609 -91 1734 -91 
Q 1441 -91 1130 -33 
Q 819 25 488 141 
L 488 750 
Q 750 597 1062 519 
Q 1375 441 1716 441 
Q 2309 441 2620 675 
Q 2931 909 2931 1356 
Q 2931 1769 2642 2001 
Q 2353 2234 1838 2234 
L 1294 2234 
L 1294 2753 
L 1863 2753 
Q 2328 2753 2575 2939 
Q 2822 3125 2822 3475 
Q 2822 3834 2567 4026 
Q 2313 4219 1838 4219 
Q 1578 4219 1281 4162 
Q 984 4106 628 3988 
L 628 4550 
Q 988 4650 1302 4700 
Q 1616 4750 1894 4750 
Q 2613 4750 3031 4423 
Q 3450 4097 3450 3541 
Q 3450 3153 3228 2886 
Q 3006 2619 2597 2516 
z
" transform="scale(0.015625)"/>
       </defs>
       <use xlink:href="#DejaVuSans-33"/>
       <use xlink:href="#DejaVuSans-30" x="63.623047"/>
       <use xlink:href="#DejaVuSans-30" x="127.246094"/>
      </g>
     </g>
    </g>
    <g id="xtick_5">
     <g id="line2d_5">
      <g>
       <use xlink:href="#m4f835b10be" x="433.708277" y="440.35776" style="stroke: #000000; stroke-width: 0.8"/>
      </g>
     </g>
     <g id="text_5">
      <!-- 400 -->
      <g transform="translate(424.164527 454.956198) scale(0.1 -0.1)">
       <defs>
        <path id="DejaVuSans-34" d="M 2419 4116 
L 825 1625 
L 2419 1625 
L 2419 4116 
z
M 2253 4666 
L 3047 4666 
L 3047 1625 
L 3713 1625 
L 3713 1100 
L 3047 1100 
L 3047 0 
L 2419 0 
L 2419 1100 
L 313 1100 
L 313 1709 
L 2253 4666 
z
" transform="scale(0.015625)"/>
       </defs>
       <use xlink:href="#DejaVuSans-34"/>
       <use xlink:href="#DejaVuSans-30" x="63.623047"/>
       <use xlink:href="#DejaVuSans-30" x="127.246094"/>
      </g>
     </g>
    </g>
    <g id="xtick_6">
     <g id="line2d_6">
      <g>
       <use xlink:href="#m4f835b10be" x="509.210565" y="440.35776" style="stroke: #000000; stroke-width: 0.8"/>
      </g>
     </g>
     <g id="text_6">
      <!-- 500 -->
      <g transform="translate(499.666815 454.956198) scale(0.1 -0.1)">
       <defs>
        <path id="DejaVuSans-35" d="M 691 4666 
L 3169 4666 
L 3169 4134 
L 1269 4134 
L 1269 2991 
Q 1406 3038 1543 3061 
Q 1681 3084 1819 3084 
Q 2600 3084 3056 2656 
Q 3513 2228 3513 1497 
Q 3513 744 3044 326 
Q 2575 -91 1722 -91 
Q 1428 -91 1123 -41 
Q 819 9 494 109 
L 494 744 
Q 775 591 1075 516 
Q 1375 441 1709 441 
Q 2250 441 2565 725 
Q 2881 1009 2881 1497 
Q 2881 1984 2565 2268 
Q 2250 2553 1709 2553 
Q 1456 2553 1204 2497 
Q 953 2441 691 2322 
L 691 4666 
z
" transform="scale(0.015625)"/>
       </defs>
       <use xlink:href="#DejaVuSans-35"/>
       <use xlink:href="#DejaVuSans-30" x="63.623047"/>
       <use xlink:href="#DejaVuSans-30" x="127.246094"/>
      </g>
     </g>
    </g>
    <g id="xtick_7">
     <g id="line2d_7">
      <g>
       <use xlink:href="#m4f835b10be" x="584.712853" y="440.35776" style="stroke: #000000; stroke-width: 0.8"/>
      </g>
     </g>
     <g id="text_7">
      <!-- 600 -->
      <g transform="translate(575.169103 454.956198) scale(0.1 -0.1)">
       <defs>
        <path id="DejaVuSans-36" d="M 2113 2584 
Q 1688 2584 1439 2293 
Q 1191 2003 1191 1497 
Q 1191 994 1439 701 
Q 1688 409 2113 409 
Q 2538 409 2786 701 
Q 3034 994 3034 1497 
Q 3034 2003 2786 2293 
Q 2538 2584 2113 2584 
z
M 3366 4563 
L 3366 3988 
Q 3128 4100 2886 4159 
Q 2644 4219 2406 4219 
Q 1781 4219 1451 3797 
Q 1122 3375 1075 2522 
Q 1259 2794 1537 2939 
Q 1816 3084 2150 3084 
Q 2853 3084 3261 2657 
Q 3669 2231 3669 1497 
Q 3669 778 3244 343 
Q 2819 -91 2113 -91 
Q 1303 -91 875 529 
Q 447 1150 447 2328 
Q 447 3434 972 4092 
Q 1497 4750 2381 4750 
Q 2619 4750 2861 4703 
Q 3103 4656 3366 4563 
z
" transform="scale(0.015625)"/>
       </defs>
       <use xlink:href="#DejaVuSans-36"/>
       <use xlink:href="#DejaVuSans-30" x="63.623047"/>
       <use xlink:href="#DejaVuSans-30" x="127.246094"/>
      </g>
     </g>
    </g>
    <g id="xtick_8">
     <g id="line2d_8">
      <g>
       <use xlink:href="#m4f835b10be" x="660.21514" y="440.35776" style="stroke: #000000; stroke-width: 0.8"/>
      </g>
     </g>
     <g id="text_8">
      <!-- 700 -->
      <g transform="translate(650.67139 454.956198) scale(0.1 -0.1)">
       <defs>
        <path id="DejaVuSans-37" d="M 525 4666 
L 3525 4666 
L 3525 4397 
L 1831 0 
L 1172 0 
L 2766 4134 
L 525 4134 
L 525 4666 
z
" transform="scale(0.015625)"/>
       </defs>
       <use xlink:href="#DejaVuSans-37"/>
       <use xlink:href="#DejaVuSans-30" x="63.623047"/>
       <use xlink:href="#DejaVuSans-30" x="127.246094"/>
      </g>
     </g>
    </g>
    <g id="xtick_9">
     <g id="line2d_9">
      <g>
       <use xlink:href="#m4f835b10be" x="735.717428" y="440.35776" style="stroke: #000000; stroke-width: 0.8"/>
      </g>
     </g>
     <g id="text_9">
      <!-- 800 -->
      <g transform="translate(726.173678 454.956198) scale(0.1 -0.1)">
       <defs>
        <path id="DejaVuSans-38" d="M 2034 2216 
Q 1584 2216 1326 1975 
Q 1069 1734 1069 1313 
Q 1069 891 1326 650 
Q 1584 409 2034 409 
Q 2484 409 2743 651 
Q 3003 894 3003 1313 
Q 3003 1734 2745 1975 
Q 2488 2216 2034 2216 
z
M 1403 2484 
Q 997 2584 770 2862 
Q 544 3141 544 3541 
Q 544 4100 942 4425 
Q 1341 4750 2034 4750 
Q 2731 4750 3128 4425 
Q 3525 4100 3525 3541 
Q 3525 3141 3298 2862 
Q 3072 2584 2669 2484 
Q 3125 2378 3379 2068 
Q 3634 1759 3634 1313 
Q 3634 634 3220 271 
Q 2806 -91 2034 -91 
Q 1263 -91 848 271 
Q 434 634 434 1313 
Q 434 1759 690 2068 
Q 947 2378 1403 2484 
z
M 1172 3481 
Q 1172 3119 1398 2916 
Q 1625 2713 2034 2713 
Q 2441 2713 2670 2916 
Q 2900 3119 2900 3481 
Q 2900 3844 2670 4047 
Q 2441 4250 2034 4250 
Q 1625 4250 1398 4047 
Q 1172 3844 1172 3481 
z
" transform="scale(0.015625)"/>
       </defs>
       <use xlink:href="#DejaVuSans-38"/>
       <use xlink:href="#DejaVuSans-30" x="63.623047"/>
       <use xlink:href="#DejaVuSans-30" x="127.246094"/>
      </g>
     </g>
    </g>
   </g>
   <g id="matplotlib.axis_2">
    <g id="ytick_1">
     <g id="line2d_10">
      <defs>
       <path id="m729b6e44dc" d="M 0 0 
L -3.5 0 
" style="stroke: #000000; stroke-width: 0.8"/>
      </defs>
      <g>
       <use xlink:href="#m729b6e44dc" x="102.744" y="423.04032" style="stroke: #000000; stroke-width: 0.8"/>
      </g>
     </g>
     <g id="text_10">
      <!-- 0 -->
      <g transform="translate(89.3815 426.839539) scale(0.1 -0.1)">
       <use xlink:href="#DejaVuSans-30"/>
      </g>
     </g>
    </g>
    <g id="ytick_2">
     <g id="line2d_11">
      <g>
       <use xlink:href="#m729b6e44dc" x="102.744" y="379.529164" style="stroke: #000000; stroke-width: 0.8"/>
      </g>
     </g>
     <g id="text_11">
      <!-- 25 -->
      <g transform="translate(83.019 383.328383) scale(0.1 -0.1)">
       <use xlink:href="#DejaVuSans-32"/>
       <use xlink:href="#DejaVuSans-35" x="63.623047"/>
      </g>
     </g>
    </g>
    <g id="ytick_3">
     <g id="line2d_12">
      <g>
       <use xlink:href="#m729b6e44dc" x="102.744" y="336.018008" style="stroke: #000000; stroke-width: 0.8"/>
      </g>
     </g>
     <g id="text_12">
      <!-- 50 -->
      <g transform="translate(83.019 339.817227) scale(0.1 -0.1)">
       <use xlink:href="#DejaVuSans-35"/>
       <use xlink:href="#DejaVuSans-30" x="63.623047"/>
      </g>
     </g>
    </g>
    <g id="ytick_4">
     <g id="line2d_13">
      <g>
       <use xlink:href="#m729b6e44dc" x="102.744" y="292.506853" style="stroke: #000000; stroke-width: 0.8"/>
      </g>
     </g>
     <g id="text_13">
      <!-- 75 -->
      <g transform="translate(83.019 296.306071) scale(0.1 -0.1)">
       <use xlink:href="#DejaVuSans-37"/>
       <use xlink:href="#DejaVuSans-35" x="63.623047"/>
      </g>
     </g>
    </g>
    <g id="ytick_5">
     <g id="line2d_14">
      <g>
       <use xlink:href="#m729b6e44dc" x="102.744" y="248.995697" style="stroke: #000000; stroke-width: 0.8"/>
      </g>
     </g>
     <g id="text_14">
      <!-- 100 -->
      <g transform="translate(76.6565 252.794916) scale(0.1 -0.1)">
       <use xlink:href="#DejaVuSans-31"/>
       <use xlink:href="#DejaVuSans-30" x="63.623047"/>
       <use xlink:href="#DejaVuSans-30" x="127.246094"/>
      </g>
     </g>
    </g>
    <g id="ytick_6">
     <g id="line2d_15">
      <g>
       <use xlink:href="#m729b6e44dc" x="102.744" y="205.484541" style="stroke: #000000; stroke-width: 0.8"/>
      </g>
     </g>
     <g id="text_15">
      <!-- 125 -->
      <g transform="translate(76.6565 209.28376) scale(0.1 -0.1)">
       <use xlink:href="#DejaVuSans-31"/>
       <use xlink:href="#DejaVuSans-32" x="63.623047"/>
       <use xlink:href="#DejaVuSans-35" x="127.246094"/>
      </g>
     </g>
    </g>
    <g id="ytick_7">
     <g id="line2d_16">
      <g>
       <use xlink:href="#m729b6e44dc" x="102.744" y="161.973385" style="stroke: #000000; stroke-width: 0.8"/>
      </g>
     </g>
     <g id="text_16">
      <!-- 150 -->
      <g transform="translate(76.6565 165.772604) scale(0.1 -0.1)">
       <use xlink:href="#DejaVuSans-31"/>
       <use xlink:href="#DejaVuSans-35" x="63.623047"/>
       <use xlink:href="#DejaVuSans-30" x="127.246094"/>
      </g>
     </g>
    </g>
    <g id="ytick_8">
     <g id="line2d_17">
      <g>
       <use xlink:href="#m729b6e44dc" x="102.744" y="118.46223" style="stroke: #000000; stroke-width: 0.8"/>
      </g>
     </g>
     <g id="text_17">
      <!-- 175 -->
      <g transform="translate(76.6565 122.261448) scale(0.1 -0.1)">
       <use xlink:href="#DejaVuSans-31"/>
       <use xlink:href="#DejaVuSans-37" x="63.623047"/>
       <use xlink:href="#DejaVuSans-35" x="127.246094"/>
      </g>
     </g>
    </g>
    <g id="ytick_9">
     <g id="line2d_18">
      <g>
       <use xlink:href="#m729b6e44dc" x="102.744" y="74.951074" style="stroke: #000000; stroke-width: 0.8"/>
      </g>
     </g>
     <g id="text_18">
      <!-- 200 -->
      <g transform="translate(76.6565 78.750293) scale(0.1 -0.1)">
       <use xlink:href="#DejaVuSans-32"/>
       <use xlink:href="#DejaVuSans-30" x="63.623047"/>
       <use xlink:href="#DejaVuSans-30" x="127.246094"/>
      </g>
     </g>
    </g>
   </g>
   <g id="line2d_19">
    <path d="M 131.699127 364.561327 
L 132.45415 376.74445 
L 133.209173 382.487923 
L 133.964196 374.133781 
L 134.719219 348.027087 
L 135.474242 378.484896 
L 136.229265 369.086487 
L 136.984287 361.602568 
L 137.73931 369.95671 
L 138.494333 423.04032 
L 139.249356 357.599542 
L 140.004379 356.903363 
L 140.759402 375.874227 
L 141.514425 370.652888 
L 142.269448 378.136807 
L 143.02447 370.826933 
L 143.779493 343.327883 
L 144.534516 371.523112 
L 145.289539 347.678998 
L 146.044562 362.82088 
L 146.799585 354.640783 
L 147.554608 361.428523 
L 148.309631 353.77056 
L 149.064653 372.567379 
L 149.819676 359.339988 
L 150.574699 368.912442 
L 151.329722 354.466738 
L 152.084745 382.661967 
L 152.839768 384.402414 
L 153.594791 363.691104 
L 154.349814 360.384256 
L 155.104836 368.042219 
L 155.859859 379.877253 
L 156.614882 388.40544 
L 157.369905 375.004004 
L 158.124928 381.26961 
L 158.879951 365.257505 
L 159.634974 365.779639 
L 160.389997 356.555274 
L 161.145019 358.469765 
L 161.900042 363.865148 
L 162.655065 353.074382 
L 163.410088 383.532191 
L 164.165111 344.024061 
L 164.920134 375.352093 
L 165.675157 349.941578 
L 166.43018 371.349067 
L 167.185202 374.307826 
L 167.940225 354.988872 
L 168.695248 423.04032 
L 169.450271 389.275663 
L 170.205294 380.921521 
L 170.960317 380.573432 
L 171.71534 364.387282 
L 172.470363 362.646836 
L 173.225385 383.010057 
L 173.980408 357.425497 
L 174.735431 341.587436 
L 175.490454 352.552248 
L 176.245477 350.811801 
L 177.0005 423.04032 
L 177.755523 365.779639 
L 178.510546 379.529164 
L 179.265568 378.832986 
L 180.020591 365.953684 
L 180.775614 372.567379 
L 181.530637 366.475817 
L 182.28566 348.723266 
L 183.040683 388.927574 
L 183.795706 372.741424 
L 184.550729 365.779639 
L 185.305751 373.263558 
L 186.060774 347.504954 
L 186.815797 361.950657 
L 187.57082 367.346041 
L 188.325843 380.051298 
L 189.080866 366.301773 
L 190.590912 347.853043 
L 191.345934 379.529164 
L 192.100957 384.054324 
L 192.85598 423.04032 
L 193.611003 372.045245 
L 194.366026 380.225343 
L 195.121049 338.106544 
L 195.876072 366.649862 
L 196.631095 359.339988 
L 197.386117 356.03314 
L 198.14114 358.469765 
L 198.896163 376.918495 
L 199.651186 389.797797 
L 201.161232 341.761481 
L 201.916255 381.6177 
L 202.671278 380.051298 
L 203.4263 364.039193 
L 204.181323 368.042219 
L 204.936346 387.535217 
L 205.691369 373.089513 
L 206.446392 336.540142 
L 207.201415 355.162917 
L 207.956438 377.614673 
L 208.711461 383.88028 
L 209.466483 376.74445 
L 210.221506 354.118649 
L 210.976529 373.089513 
L 211.731552 384.054324 
L 212.486575 371.697156 
L 213.241598 363.343014 
L 213.996621 357.947631 
L 214.751644 365.083461 
L 215.506666 363.865148 
L 216.261689 368.738398 
L 217.016712 363.865148 
L 217.771735 369.95671 
L 218.526758 368.738398 
L 219.281781 363.865148 
L 220.036804 364.387282 
L 221.546849 382.661967 
L 222.301872 330.448581 
L 223.056895 363.517059 
L 223.811918 364.561327 
L 224.566941 376.396361 
L 225.321964 365.083461 
L 226.076987 327.315777 
L 226.83201 348.375177 
L 227.587032 365.083461 
L 228.342055 362.994925 
L 229.097078 374.48187 
L 229.852101 371.349067 
L 230.607124 365.083461 
L 231.362147 362.994925 
L 232.11717 356.381229 
L 232.872193 386.316905 
L 233.627215 364.213237 
L 234.382238 369.434576 
L 235.137261 373.089513 
L 235.892284 368.738398 
L 236.647307 358.817854 
L 237.40233 386.316905 
L 238.157353 354.292694 
L 238.912376 366.475817 
L 239.667398 366.649862 
L 240.422421 365.953684 
L 241.177444 423.04032 
L 241.932467 365.953684 
L 242.68749 369.95671 
L 243.442513 364.387282 
L 244.197536 375.526138 
L 244.952559 357.947631 
L 245.707581 384.924548 
L 246.462604 363.343014 
L 247.217627 352.378203 
L 247.97265 339.672946 
L 248.727673 336.018008 
L 249.482696 380.225343 
L 250.237719 379.181075 
L 250.992742 372.567379 
L 251.747764 351.856069 
L 252.502787 371.349067 
L 254.012833 346.112597 
L 254.767856 371.349067 
L 255.522879 368.042219 
L 256.277902 371.000978 
L 257.032925 366.475817 
L 257.787947 371.523112 
L 258.54297 367.520085 
L 259.297993 373.611647 
L 260.053016 369.434576 
L 260.808039 361.428523 
L 261.563062 372.741424 
L 262.318085 347.330909 
L 263.073108 371.349067 
L 263.82813 366.127728 
L 264.583153 368.738398 
L 265.338176 306.256378 
L 266.093199 344.72024 
L 266.848222 354.988872 
L 267.603245 382.661967 
L 268.358268 362.298747 
L 269.113291 374.829959 
L 269.868313 376.396361 
L 270.623336 375.004004 
L 271.378359 360.5583 
L 272.133382 370.652888 
L 272.888405 367.346041 
L 273.643428 374.48187 
L 274.398451 368.042219 
L 275.153474 383.706235 
L 275.908496 365.43155 
L 276.663519 370.130755 
L 277.418542 332.014982 
L 278.173565 380.573432 
L 278.928588 354.466738 
L 279.683611 380.747477 
L 280.438634 383.184101 
L 281.193657 362.472791 
L 281.948679 369.260531 
L 282.703702 369.086487 
L 283.458725 353.248426 
L 284.213748 375.526138 
L 284.968771 387.535217 
L 285.723794 357.425497 
L 286.478817 381.443655 
L 287.23384 357.773586 
L 287.988862 357.425497 
L 288.743885 365.257505 
L 289.498908 361.254479 
L 290.253931 374.829959 
L 291.008954 348.549221 
L 291.763977 363.517059 
L 292.519 348.897311 
L 293.274023 363.517059 
L 294.029045 350.289668 
L 295.539091 370.826933 
L 296.294114 372.567379 
L 297.049137 357.251452 
L 298.559183 368.042219 
L 299.314206 379.181075 
L 300.069228 372.915469 
L 300.824251 381.965789 
L 301.579274 362.82088 
L 302.334297 360.90639 
L 303.08932 358.29572 
L 303.844343 359.165943 
L 304.599366 344.37215 
L 305.354389 346.460686 
L 306.109411 342.631704 
L 306.864434 378.832986 
L 307.619457 362.124702 
L 308.37448 371.349067 
L 309.129503 347.156864 
L 309.884526 360.5583 
L 310.639549 346.286641 
L 312.149595 391.016109 
L 312.904617 372.21929 
L 313.65964 365.43155 
L 314.414663 378.484896 
L 315.169686 375.874227 
L 315.924709 356.555274 
L 316.679732 370.826933 
L 317.434755 368.738398 
L 318.189778 332.014982 
L 318.9448 361.428523 
L 319.699823 370.652888 
L 320.454846 368.738398 
L 321.964892 380.573432 
L 322.719915 360.732345 
L 323.474938 375.004004 
L 324.229961 364.561327 
L 324.984983 370.652888 
L 325.740006 373.089513 
L 326.495029 377.962763 
L 327.250052 365.083461 
L 328.005075 369.260531 
L 328.760098 370.826933 
L 329.515121 367.171996 
L 330.270144 366.649862 
L 331.025166 367.346041 
L 331.780189 364.561327 
L 332.535212 359.862122 
L 333.290235 353.422471 
L 334.045258 379.35512 
L 334.800281 375.178049 
L 335.555304 343.675972 
L 336.310327 379.181075 
L 337.065349 383.010057 
L 337.820372 365.257505 
L 338.575395 363.517059 
L 339.330418 352.552248 
L 340.085441 376.918495 
L 340.840464 374.655915 
L 341.595487 379.703209 
L 342.35051 379.00703 
L 343.105532 357.077408 
L 343.860555 360.5583 
L 344.615578 366.649862 
L 345.370601 370.130755 
L 346.125624 376.048272 
L 346.880647 377.788718 
L 347.63567 355.685051 
L 348.390693 343.675972 
L 349.145715 386.839038 
L 349.900738 360.210211 
L 350.655761 358.817854 
L 351.410784 359.339988 
L 352.165807 347.678998 
L 352.92083 352.552248 
L 353.675853 384.924548 
L 354.430876 361.254479 
L 355.185898 374.307826 
L 355.940921 369.608621 
L 356.695944 359.339988 
L 357.450967 381.965789 
L 358.20599 366.823907 
L 358.961013 368.042219 
L 359.716036 360.732345 
L 360.471059 330.970714 
L 361.226081 386.490949 
L 361.981104 353.944605 
L 362.736127 378.658941 
L 363.49115 379.877253 
L 364.246173 369.95671 
L 365.001196 365.779639 
L 365.756219 377.440629 
L 366.511242 354.466738 
L 367.266264 376.74445 
L 368.021287 371.697156 
L 368.77631 360.5583 
L 369.531333 363.691104 
L 370.286356 389.449708 
L 371.041379 369.95671 
L 371.796402 356.729319 
L 372.551425 382.139834 
L 374.06147 368.042219 
L 374.816493 375.352093 
L 375.571516 376.396361 
L 376.326539 360.90639 
L 377.081562 378.484896 
L 377.836585 361.950657 
L 378.591608 361.950657 
L 379.34663 343.850016 
L 380.101653 369.434576 
L 380.856676 382.836012 
L 382.366722 347.678998 
L 383.121745 381.965789 
L 383.876768 381.443655 
L 384.631791 339.672946 
L 385.386813 364.213237 
L 386.141836 368.738398 
L 386.896859 363.517059 
L 387.651882 353.596515 
L 388.406905 377.962763 
L 389.161928 377.962763 
L 389.916951 367.346041 
L 390.671974 362.646836 
L 391.426996 358.991899 
L 392.182019 356.03314 
L 392.937042 373.089513 
L 393.692065 382.139834 
L 394.447088 385.098592 
L 395.202111 351.682025 
L 395.957134 349.593489 
L 396.712157 368.738398 
L 397.467179 363.16897 
L 398.222202 375.700183 
L 398.977225 348.723266 
L 399.732248 370.130755 
L 400.487271 365.083461 
L 401.242294 353.596515 
L 401.997317 361.602568 
L 402.75234 359.514033 
L 403.507362 368.738398 
L 404.262385 371.175022 
L 405.017408 354.814828 
L 405.772431 356.03314 
L 406.527454 362.298747 
L 407.282477 363.865148 
L 408.792523 386.490949 
L 409.547545 375.178049 
L 411.057591 356.207185 
L 411.812614 423.04032 
L 412.567637 360.732345 
L 413.32266 362.298747 
L 414.077683 360.036166 
L 414.832706 354.814828 
L 415.587728 379.181075 
L 417.097774 338.976767 
L 417.852797 347.504954 
L 419.362843 388.231395 
L 420.117866 378.832986 
L 420.872889 379.35512 
L 421.627911 380.747477 
L 422.382934 384.228369 
L 423.89298 347.678998 
L 424.648003 367.346041 
L 425.403026 368.042219 
L 426.158049 367.346041 
L 426.913072 343.501927 
L 427.668094 381.791744 
L 428.423117 384.576458 
L 429.17814 365.779639 
L 429.933163 374.829959 
L 430.688186 380.051298 
L 431.443209 363.343014 
L 432.198232 386.316905 
L 432.953255 362.298747 
L 433.708277 367.346041 
L 434.4633 380.921521 
L 435.218323 362.124702 
L 435.973346 368.042219 
L 436.728369 365.779639 
L 437.483392 349.767534 
L 438.238415 372.741424 
L 438.993438 384.924548 
L 439.74846 377.962763 
L 440.503483 349.2454 
L 441.258506 360.90639 
L 442.013529 363.16897 
L 442.768552 349.2454 
L 443.523575 377.440629 
L 444.278598 362.82088 
L 445.033621 360.90639 
L 445.788643 375.700183 
L 446.543666 356.03314 
L 447.298689 391.364199 
L 448.053712 377.092539 
L 448.808735 344.198106 
L 449.563758 377.788718 
L 450.318781 352.378203 
L 451.073804 369.434576 
L 451.828826 348.375177 
L 452.583849 358.643809 
L 453.338872 423.04032 
L 454.093895 363.691104 
L 454.848918 352.378203 
L 455.603941 362.124702 
L 456.358964 384.402414 
L 457.113987 370.130755 
L 457.869009 370.826933 
L 458.624032 378.484896 
L 459.379055 380.399387 
L 460.134078 349.2454 
L 460.889101 357.947631 
L 461.644124 371.000978 
L 462.399147 391.364199 
L 463.15417 358.991899 
L 463.909192 363.343014 
L 464.664215 366.997951 
L 465.419238 365.257505 
L 466.174261 369.95671 
L 466.929284 371.349067 
L 467.684307 319.657814 
L 468.43933 379.00703 
L 469.194353 359.514033 
L 470.704398 369.95671 
L 471.459421 386.14286 
L 472.214444 372.741424 
L 472.969467 353.596515 
L 473.72449 388.927574 
L 474.479513 357.251452 
L 475.234536 364.561327 
L 475.989558 376.570406 
L 476.744581 370.478844 
L 477.499604 357.599542 
L 478.254627 377.962763 
L 479.00965 386.839038 
L 479.764673 385.098592 
L 480.519696 361.602568 
L 481.274719 375.004004 
L 482.029741 381.26961 
L 482.784764 385.098592 
L 483.539787 374.655915 
L 484.29481 358.991899 
L 485.049833 370.826933 
L 485.804856 342.805749 
L 486.559879 351.159891 
L 487.314902 365.257505 
L 488.069924 355.511006 
L 488.824947 371.000978 
L 489.57997 372.741424 
L 490.334993 375.526138 
L 491.090016 364.387282 
L 491.845039 381.6177 
L 493.355085 374.307826 
L 494.110107 361.254479 
L 494.86513 361.776613 
L 495.620153 374.655915 
L 496.375176 356.555274 
L 497.130199 346.112597 
L 497.885222 349.419444 
L 498.640245 352.204158 
L 499.395268 342.10957 
L 500.15029 378.484896 
L 500.905313 377.614673 
L 501.660336 358.991899 
L 502.415359 364.735371 
L 503.170382 365.953684 
L 503.925405 372.741424 
L 504.680428 423.04032 
L 505.435451 376.74445 
L 506.190473 377.788718 
L 506.945496 370.652888 
L 507.700519 379.35512 
L 508.455542 372.045245 
L 509.210565 379.181075 
L 509.965588 358.29572 
L 510.720611 355.162917 
L 511.475634 365.083461 
L 512.230656 358.121676 
L 512.985679 365.083461 
L 513.740702 359.514033 
L 514.495725 373.263558 
L 515.250748 370.130755 
L 516.005771 379.529164 
L 516.760794 371.349067 
L 517.515817 384.576458 
L 518.270839 380.921521 
L 519.025862 375.526138 
L 519.780885 378.484896 
L 520.535908 368.042219 
L 521.290931 370.304799 
L 522.045954 357.599542 
L 522.800977 365.953684 
L 523.556 388.927574 
L 524.311022 379.529164 
L 525.066045 365.257505 
L 525.821068 423.04032 
L 526.576091 363.517059 
L 527.331114 368.042219 
L 528.086137 385.098592 
L 528.84116 391.364199 
L 529.596183 377.266584 
L 530.351205 369.434576 
L 531.106228 380.225343 
L 531.861251 371.175022 
L 532.616274 344.198106 
L 533.371297 351.159891 
L 534.12632 371.175022 
L 534.881343 365.083461 
L 535.636366 365.779639 
L 536.391389 371.523112 
L 537.146411 385.272637 
L 537.901434 359.862122 
L 538.656457 359.688077 
L 539.41148 354.466738 
L 540.166503 366.649862 
L 540.921526 362.298747 
L 541.676549 354.292694 
L 542.431572 367.346041 
L 543.186594 362.994925 
L 543.941617 347.156864 
L 544.69664 365.43155 
L 545.451663 365.953684 
L 546.206686 373.437602 
L 546.961709 375.352093 
L 547.716732 367.520085 
L 548.471755 374.655915 
L 549.226777 371.000978 
L 549.9818 358.817854 
L 550.736823 378.658941 
L 551.491846 356.729319 
L 552.246869 374.655915 
L 553.001892 342.631704 
L 553.756915 370.652888 
L 554.511938 364.213237 
L 555.26696 351.159891 
L 556.021983 357.599542 
L 556.777006 376.222316 
L 557.532029 366.649862 
L 558.287052 377.614673 
L 559.042075 355.859095 
L 559.797098 367.346041 
L 560.552121 368.564353 
L 561.307143 363.343014 
L 562.062166 366.475817 
L 562.817189 383.706235 
L 563.572212 371.697156 
L 564.327235 362.646836 
L 565.082258 370.652888 
L 565.837281 361.254479 
L 566.592304 381.26961 
L 567.347326 348.375177 
L 568.102349 376.048272 
L 569.612395 349.767534 
L 570.367418 379.529164 
L 571.122441 376.918495 
L 571.877464 355.685051 
L 572.632487 373.089513 
L 573.387509 383.88028 
L 574.142532 362.298747 
L 574.897555 380.747477 
L 575.652578 365.083461 
L 576.407601 386.316905 
L 577.162624 341.587436 
L 577.917647 354.466738 
L 578.67267 363.16897 
L 579.427692 373.437602 
L 580.182715 364.561327 
L 580.937738 367.346041 
L 581.692761 344.198106 
L 582.447784 374.655915 
L 583.202807 358.991899 
L 583.95783 382.836012 
L 584.712853 375.874227 
L 585.467875 381.791744 
L 586.222898 374.655915 
L 586.977921 361.776613 
L 587.732944 373.611647 
L 588.487967 360.732345 
L 589.24299 353.422471 
L 589.998013 389.101618 
L 590.753036 350.811801 
L 591.508058 381.26961 
L 592.263081 369.260531 
L 593.018104 365.779639 
L 593.773127 356.555274 
L 594.52815 366.475817 
L 595.283173 360.210211 
L 596.038196 378.136807 
L 596.793219 373.089513 
L 597.548241 388.057351 
L 598.303264 373.959736 
L 599.058287 366.649862 
L 599.81331 356.207185 
L 600.568333 380.921521 
L 601.323356 352.030114 
L 602.078379 347.330909 
L 602.833402 369.434576 
L 603.588424 357.425497 
L 604.343447 380.051298 
L 605.09847 366.649862 
L 605.853493 362.82088 
L 606.608516 380.051298 
L 607.363539 375.352093 
L 608.118562 362.994925 
L 608.873585 377.440629 
L 609.628607 375.178049 
L 610.38363 377.962763 
L 611.138653 368.738398 
L 611.893676 372.915469 
L 612.648699 368.042219 
L 613.403722 351.856069 
L 614.158745 389.101618 
L 614.913768 372.045245 
L 615.66879 363.343014 
L 616.423813 371.697156 
L 617.178836 374.307826 
L 617.933859 375.004004 
L 618.688882 354.466738 
L 619.443905 382.313878 
L 620.198928 357.251452 
L 620.953951 373.785692 
L 621.708973 377.092539 
L 622.463996 379.181075 
L 623.219019 364.213237 
L 623.974042 363.691104 
L 624.729065 376.396361 
L 625.484088 363.517059 
L 626.239111 355.685051 
L 626.994134 385.098592 
L 627.749156 355.336962 
L 628.504179 355.162917 
L 629.259202 363.517059 
L 630.014225 374.829959 
L 630.769248 348.375177 
L 631.524271 357.599542 
L 632.279294 357.077408 
L 633.034317 364.387282 
L 633.789339 362.472791 
L 634.544362 366.475817 
L 635.299385 375.178049 
L 636.054408 363.865148 
L 636.809431 369.260531 
L 637.564454 364.561327 
L 638.319477 378.832986 
L 639.0745 361.254479 
L 639.829522 323.312751 
L 640.584545 361.080434 
L 641.339568 369.260531 
L 642.094591 379.877253 
L 642.849614 361.602568 
L 643.604637 360.384256 
L 644.35966 380.921521 
L 645.114683 380.921521 
L 645.869705 336.714187 
L 646.624728 345.416418 
L 647.379751 366.823907 
L 648.134774 423.04032 
L 648.889797 365.257505 
L 649.64482 382.836012 
L 650.399843 373.785692 
L 651.154866 381.095566 
L 651.909888 342.805749 
L 652.664911 380.225343 
L 653.419934 349.419444 
L 654.174957 354.988872 
L 654.92998 356.03314 
L 655.685003 382.139834 
L 656.440026 370.130755 
L 657.195049 371.000978 
L 657.950071 379.529164 
L 659.460117 345.590463 
L 660.970163 375.004004 
L 661.725186 362.124702 
L 662.480209 356.03314 
L 663.235232 373.611647 
L 663.990254 353.77056 
L 664.745277 423.04032 
L 665.5003 363.16897 
L 666.255323 365.953684 
L 667.010346 356.903363 
L 667.765369 368.738398 
L 668.520392 371.523112 
L 669.275415 351.333935 
L 670.030437 377.092539 
L 670.78546 371.697156 
L 671.540483 364.039193 
L 672.295506 364.213237 
L 673.050529 382.836012 
L 673.805552 361.254479 
L 674.560575 361.080434 
L 675.315598 372.045245 
L 676.07062 356.729319 
L 676.825643 372.045245 
L 677.580666 354.988872 
L 678.335689 365.953684 
L 679.090712 354.466738 
L 680.600758 366.649862 
L 681.355781 383.184101 
L 682.110803 370.652888 
L 682.865826 373.611647 
L 683.620849 373.611647 
L 684.375872 345.590463 
L 685.130895 372.567379 
L 685.885918 382.487923 
L 686.640941 361.428523 
L 687.395964 375.352093 
L 688.906009 359.339988 
L 690.416055 349.419444 
L 691.171078 369.434576 
L 691.926101 373.437602 
L 692.681124 366.127728 
L 693.436147 352.378203 
L 694.191169 370.826933 
L 694.946192 337.236321 
L 695.701215 342.457659 
L 696.456238 359.688077 
L 697.211261 380.747477 
L 698.721307 355.162917 
L 699.47633 377.788718 
L 700.231352 347.678998 
L 700.986375 366.649862 
L 701.741398 359.514033 
L 702.496421 367.346041 
L 703.251444 359.862122 
L 704.006467 357.773586 
L 704.76149 361.254479 
L 705.516513 373.611647 
L 706.271535 346.460686 
L 707.026558 383.88028 
L 707.781581 365.779639 
L 708.536604 358.991899 
L 709.291627 377.440629 
L 710.04665 370.652888 
L 710.801673 370.130755 
L 710.801673 370.130755 
" clip-path="url(#p41850eb23f)" style="fill: none; stroke: #ff0000; stroke-width: 1.5; stroke-linecap: square"/>
   </g>
   <g id="line2d_20">
    <path d="M 131.699127 165.454278 
L 132.45415 275.10239 
L 133.209173 104.53866 
L 133.964196 268.140605 
L 134.719219 184.599186 
L 135.474242 221.148557 
L 136.229265 287.285514 
L 136.984287 222.889003 
L 137.73931 80.172412 
L 138.494333 205.484541 
L 139.249356 231.591235 
L 140.004379 130.645353 
L 140.759402 181.118294 
L 141.514425 94.095982 
L 142.269448 134.126246 
L 143.02447 248.995697 
L 143.779493 217.667665 
L 144.534516 236.812573 
L 145.289539 243.774358 
L 146.799585 203.744095 
L 147.554608 250.736143 
L 148.309631 81.912859 
L 149.064653 215.927218 
L 149.819676 174.156509 
L 150.574699 205.484541 
L 151.329722 167.194724 
L 152.084745 254.217036 
L 152.839768 170.675616 
L 153.594791 219.408111 
L 154.349814 233.331681 
L 155.104836 148.049815 
L 155.859859 269.881052 
L 156.614882 262.919267 
L 157.369905 210.70588 
L 158.124928 243.774358 
L 158.879951 182.85874 
L 159.634974 245.514804 
L 160.389997 266.400159 
L 161.145019 229.850788 
L 161.900042 109.759998 
L 162.655065 191.560971 
L 163.410088 238.553019 
L 164.165111 125.424014 
L 164.920134 146.309369 
L 165.675157 109.759998 
L 166.43018 168.93517 
L 167.185202 299.468638 
L 167.940225 243.774358 
L 168.695248 240.293466 
L 170.205294 247.255251 
L 170.960317 269.881052 
L 171.71534 116.721783 
L 172.470363 161.973385 
L 173.225385 295.987745 
L 173.980408 97.576875 
L 174.735431 248.995697 
L 175.490454 168.93517 
L 176.245477 240.293466 
L 177.0005 276.842837 
L 177.755523 191.560971 
L 178.510546 346.460686 
L 179.265568 177.637401 
L 180.020591 224.62945 
L 180.775614 250.736143 
L 181.530637 233.331681 
L 182.28566 233.331681 
L 183.040683 257.697928 
L 183.795706 168.93517 
L 184.550729 248.995697 
L 185.305751 181.118294 
L 186.060774 203.744095 
L 186.815797 198.522756 
L 187.57082 285.545068 
L 188.325843 423.04032 
L 189.080866 315.132654 
L 190.590912 195.041864 
L 191.345934 228.110342 
L 192.100957 226.369896 
L 192.85598 294.247299 
L 193.611003 278.583283 
L 194.366026 247.255251 
L 195.121049 184.599186 
L 195.876072 231.591235 
L 196.631095 238.553019 
L 197.386117 248.995697 
L 198.14114 186.339633 
L 199.651186 283.804622 
L 200.406209 208.965434 
L 201.161232 282.064175 
L 201.916255 189.820525 
L 202.671278 175.896955 
L 203.4263 172.416063 
L 204.181323 262.919267 
L 204.936346 299.468638 
L 205.691369 261.178821 
L 206.446392 210.70588 
L 207.201415 139.347584 
L 207.956438 160.232939 
L 208.711461 205.484541 
L 209.466483 282.064175 
L 210.221506 275.10239 
L 210.976529 203.744095 
L 211.731552 255.957482 
L 212.486575 172.416063 
L 213.241598 278.583283 
L 213.996621 257.697928 
L 214.751644 125.424014 
L 215.506666 153.271154 
L 216.261689 268.140605 
L 217.016712 290.766406 
L 217.771735 144.568923 
L 218.526758 168.93517 
L 219.281781 207.224987 
L 220.036804 287.285514 
L 220.791827 254.217036 
L 221.546849 250.736143 
L 222.301872 141.088031 
L 223.056895 229.850788 
L 223.811918 236.812573 
L 224.566941 193.301417 
L 225.321964 226.369896 
L 226.076987 269.881052 
L 226.83201 214.186772 
L 227.587032 217.667665 
L 228.342055 219.408111 
L 229.097078 240.293466 
L 229.852101 121.943122 
L 230.607124 210.70588 
L 231.362147 127.164461 
L 232.11717 276.842837 
L 232.872193 255.957482 
L 233.627215 205.484541 
L 234.382238 248.995697 
L 235.137261 261.178821 
L 235.892284 198.522756 
L 236.647307 240.293466 
L 237.40233 200.263202 
L 238.157353 238.553019 
L 238.912376 235.072127 
L 239.667398 235.072127 
L 240.422421 155.0116 
L 241.932467 323.834885 
L 242.68749 238.553019 
L 243.442513 167.194724 
L 244.197536 266.400159 
L 244.952559 186.339633 
L 245.707581 224.62945 
L 246.462604 151.530708 
L 247.217627 156.752047 
L 247.97265 95.836429 
L 248.727673 158.492493 
L 249.482696 250.736143 
L 250.237719 233.331681 
L 250.992742 269.881052 
L 251.747764 139.347584 
L 252.502787 160.232939 
L 253.25781 245.514804 
L 254.012833 224.62945 
L 254.767856 248.995697 
L 255.522879 195.041864 
L 256.277902 242.033912 
L 257.032925 165.454278 
L 257.787947 214.186772 
L 258.54297 231.591235 
L 259.297993 229.850788 
L 260.053016 245.514804 
L 260.808039 189.820525 
L 261.563062 271.621498 
L 262.318085 285.545068 
L 263.073108 292.506853 
L 263.82813 111.500445 
L 264.583153 275.10239 
L 265.338176 198.522756 
L 266.093199 174.156509 
L 266.848222 196.78231 
L 267.603245 271.621498 
L 268.358268 215.927218 
L 269.113291 423.04032 
L 270.623336 177.637401 
L 271.378359 85.393751 
L 272.133382 108.019552 
L 272.888405 200.263202 
L 273.643428 233.331681 
L 274.398451 181.118294 
L 275.153474 229.850788 
L 275.908496 208.965434 
L 276.663519 146.309369 
L 277.418542 188.080079 
L 278.173565 275.10239 
L 278.928588 148.049815 
L 279.683611 240.293466 
L 281.193657 233.331681 
L 281.948679 165.454278 
L 282.703702 226.369896 
L 283.458725 182.85874 
L 284.213748 235.072127 
L 284.968771 250.736143 
L 285.723794 243.774358 
L 286.478817 229.850788 
L 287.23384 81.912859 
L 287.988862 141.088031 
L 288.743885 255.957482 
L 289.498908 102.798213 
L 290.253931 282.064175 
L 291.008954 167.194724 
L 291.763977 111.500445 
L 292.519 179.377848 
L 293.274023 228.110342 
L 294.029045 160.232939 
L 294.784068 233.331681 
L 295.539091 205.484541 
L 296.294114 275.10239 
L 297.049137 228.110342 
L 297.80416 114.981337 
L 298.559183 148.049815 
L 299.314206 215.927218 
L 300.069228 175.896955 
L 300.824251 248.995697 
L 301.579274 271.621498 
L 302.334297 247.255251 
L 303.08932 141.088031 
L 303.844343 80.172412 
L 304.599366 219.408111 
L 305.354389 175.896955 
L 306.109411 189.820525 
L 306.864434 285.545068 
L 307.619457 210.70588 
L 308.37448 294.247299 
L 309.129503 125.424014 
L 309.884526 108.019552 
L 310.639549 111.500445 
L 311.394572 137.607138 
L 312.149595 242.033912 
L 312.904617 264.659713 
L 313.65964 264.659713 
L 314.414663 181.118294 
L 315.169686 215.927218 
L 315.924709 168.93517 
L 316.679732 102.798213 
L 317.434755 210.70588 
L 318.189778 135.866692 
L 318.9448 207.224987 
L 319.699823 229.850788 
L 320.454846 238.553019 
L 321.209869 198.522756 
L 321.964892 266.400159 
L 322.719915 273.361944 
L 323.474938 262.919267 
L 324.229961 226.369896 
L 324.984983 229.850788 
L 325.740006 224.62945 
L 326.495029 87.134197 
L 327.250052 153.271154 
L 328.005075 90.61509 
L 329.515121 257.697928 
L 330.270144 175.896955 
L 331.025166 208.965434 
L 331.780189 255.957482 
L 332.535212 182.85874 
L 333.290235 200.263202 
L 334.045258 245.514804 
L 334.800281 168.93517 
L 335.555304 247.255251 
L 336.310327 235.072127 
L 337.065349 210.70588 
L 337.820372 299.468638 
L 338.575395 238.553019 
L 339.330418 248.995697 
L 340.085441 238.553019 
L 340.840464 242.033912 
L 341.595487 224.62945 
L 342.35051 235.072127 
L 343.105532 168.93517 
L 343.860555 198.522756 
L 344.615578 191.560971 
L 345.370601 142.828477 
L 346.125624 235.072127 
L 346.880647 186.339633 
L 347.63567 153.271154 
L 348.390693 215.927218 
L 349.145715 255.957482 
L 349.900738 235.072127 
L 350.655761 287.285514 
L 351.410784 236.812573 
L 352.165807 200.263202 
L 352.92083 200.263202 
L 353.675853 142.828477 
L 354.430876 160.232939 
L 355.185898 168.93517 
L 355.940921 203.744095 
L 356.695944 248.995697 
L 357.450967 228.110342 
L 358.20599 132.385799 
L 358.961013 172.416063 
L 359.716036 289.02596 
L 361.226081 161.973385 
L 361.981104 214.186772 
L 362.736127 142.828477 
L 363.49115 184.599186 
L 364.246173 200.263202 
L 365.001196 207.224987 
L 365.756219 283.804622 
L 366.511242 238.553019 
L 367.266264 153.271154 
L 368.021287 226.369896 
L 368.77631 233.331681 
L 369.531333 228.110342 
L 370.286356 250.736143 
L 371.041379 106.279106 
L 371.796402 222.889003 
L 372.551425 85.393751 
L 373.306447 198.522756 
L 374.06147 228.110342 
L 374.816493 207.224987 
L 375.571516 158.492493 
L 376.326539 228.110342 
L 377.081562 149.790262 
L 377.836585 210.70588 
L 378.591608 111.500445 
L 379.34663 245.514804 
L 380.101653 240.293466 
L 380.856676 217.667665 
L 381.611699 271.621498 
L 382.366722 109.759998 
L 383.121745 238.553019 
L 383.876768 257.697928 
L 384.631791 135.866692 
L 385.386813 219.408111 
L 386.141836 222.889003 
L 386.896859 158.492493 
L 387.651882 113.240891 
L 388.406905 196.78231 
L 389.161928 257.697928 
L 389.916951 423.04032 
L 390.671974 210.70588 
L 391.426996 257.697928 
L 392.182019 203.744095 
L 392.937042 181.118294 
L 393.692065 221.148557 
L 394.447088 250.736143 
L 395.202111 423.04032 
L 395.957134 262.919267 
L 396.712157 184.599186 
L 397.467179 316.8731 
L 398.222202 266.400159 
L 398.977225 266.400159 
L 399.732248 135.866692 
L 400.487271 205.484541 
L 401.242294 198.522756 
L 401.997317 269.881052 
L 402.75234 81.912859 
L 403.507362 94.095982 
L 404.262385 148.049815 
L 405.017408 243.774358 
L 405.772431 168.93517 
L 406.527454 167.194724 
L 407.282477 250.736143 
L 408.0375 207.224987 
L 409.547545 282.064175 
L 410.302568 191.560971 
L 411.057591 121.943122 
L 411.812614 217.667665 
L 412.567637 276.842837 
L 413.32266 240.293466 
L 414.832706 179.377848 
L 415.587728 252.476589 
L 416.342751 271.621498 
L 417.097774 151.530708 
L 417.852797 261.178821 
L 418.60782 236.812573 
L 419.362843 240.293466 
L 420.117866 233.331681 
L 420.872889 266.400159 
L 421.627911 205.484541 
L 422.382934 215.927218 
L 423.137957 221.148557 
L 423.89298 240.293466 
L 424.648003 172.416063 
L 425.403026 248.995697 
L 426.158049 248.995697 
L 426.913072 134.126246 
L 427.668094 195.041864 
L 428.423117 221.148557 
L 429.17814 148.049815 
L 430.688186 255.957482 
L 431.443209 195.041864 
L 432.198232 280.323729 
L 432.953255 87.134197 
L 433.708277 257.697928 
L 434.4633 184.599186 
L 435.218323 186.339633 
L 435.973346 297.728191 
L 436.728369 130.645353 
L 437.483392 208.965434 
L 438.238415 222.889003 
L 438.993438 247.255251 
L 439.74846 80.172412 
L 440.503483 123.683568 
L 441.258506 245.514804 
L 442.013529 228.110342 
L 442.768552 174.156509 
L 443.523575 174.156509 
L 444.278598 182.85874 
L 445.033621 121.943122 
L 445.788643 254.217036 
L 446.543666 172.416063 
L 447.298689 278.583283 
L 448.053712 198.522756 
L 448.808735 215.927218 
L 449.563758 259.438374 
L 450.318781 245.514804 
L 451.073804 222.889003 
L 452.583849 102.798213 
L 453.338872 259.438374 
L 454.093895 108.019552 
L 455.603941 257.697928 
L 456.358964 250.736143 
L 457.869009 283.804622 
L 458.624032 181.118294 
L 459.379055 266.400159 
L 460.134078 177.637401 
L 460.889101 179.377848 
L 461.644124 167.194724 
L 462.399147 254.217036 
L 463.15417 236.812573 
L 463.909192 94.095982 
L 464.664215 278.583283 
L 465.419238 219.408111 
L 466.174261 235.072127 
L 466.929284 219.408111 
L 467.684307 109.759998 
L 468.43933 248.995697 
L 469.194353 257.697928 
L 469.949375 242.033912 
L 470.704398 214.186772 
L 471.459421 280.323729 
L 472.214444 189.820525 
L 472.969467 264.659713 
L 473.72449 215.927218 
L 474.479513 248.995697 
L 475.234536 118.46223 
L 475.989558 188.080079 
L 476.744581 273.361944 
L 477.499604 165.454278 
L 479.00965 214.186772 
L 479.764673 299.468638 
L 480.519696 294.247299 
L 481.274719 269.881052 
L 482.029741 222.889003 
L 482.784764 207.224987 
L 483.539787 294.247299 
L 485.049833 214.186772 
L 485.804856 155.0116 
L 486.559879 172.416063 
L 487.314902 184.599186 
L 488.069924 215.927218 
L 488.824947 186.339633 
L 489.57997 224.62945 
L 490.334993 184.599186 
L 491.090016 240.293466 
L 491.845039 224.62945 
L 492.600062 203.744095 
L 493.355085 193.301417 
L 494.110107 148.049815 
L 495.620153 275.10239 
L 496.375176 276.842837 
L 497.130199 170.675616 
L 497.885222 188.080079 
L 498.640245 181.118294 
L 499.395268 121.943122 
L 500.15029 250.736143 
L 500.905313 85.393751 
L 501.660336 278.583283 
L 502.415359 268.140605 
L 503.170382 250.736143 
L 503.925405 205.484541 
L 504.680428 283.804622 
L 505.435451 134.126246 
L 506.190473 231.591235 
L 506.945496 282.064175 
L 507.700519 83.653305 
L 509.210565 219.408111 
L 509.965588 276.842837 
L 510.720611 423.04032 
L 511.475634 259.438374 
L 512.230656 255.957482 
L 512.985679 292.506853 
L 513.740702 109.759998 
L 515.250748 276.842837 
L 516.005771 214.186772 
L 516.760794 276.842837 
L 517.515817 181.118294 
L 518.270839 264.659713 
L 519.025862 264.659713 
L 519.780885 250.736143 
L 520.535908 139.347584 
L 522.045954 205.484541 
L 522.800977 290.766406 
L 523.556 198.522756 
L 524.311022 304.689976 
L 525.066045 207.224987 
L 525.821068 224.62945 
L 526.576091 196.78231 
L 527.331114 205.484541 
L 528.086137 271.621498 
L 528.84116 254.217036 
L 529.596183 221.148557 
L 530.351205 219.408111 
L 531.106228 229.850788 
L 531.861251 210.70588 
L 532.616274 236.812573 
L 533.371297 273.361944 
L 534.12632 264.659713 
L 534.881343 289.02596 
L 535.636366 193.301417 
L 536.391389 240.293466 
L 537.146411 323.834885 
L 537.901434 202.003649 
L 538.656457 198.522756 
L 539.41148 248.995697 
L 540.166503 200.263202 
L 540.921526 266.400159 
L 541.676549 276.842837 
L 542.431572 269.881052 
L 543.186594 99.317321 
L 543.941617 97.576875 
L 544.69664 195.041864 
L 545.451663 137.607138 
L 546.206686 94.095982 
L 546.961709 221.148557 
L 547.716732 276.842837 
L 548.471755 224.62945 
L 549.226777 269.881052 
L 549.9818 276.842837 
L 550.736823 207.224987 
L 551.491846 254.217036 
L 552.246869 231.591235 
L 553.001892 243.774358 
L 553.756915 275.10239 
L 554.511938 205.484541 
L 555.26696 78.431966 
L 556.021983 271.621498 
L 556.777006 250.736143 
L 557.532029 264.659713 
L 559.042075 250.736143 
L 559.797098 262.919267 
L 560.552121 155.0116 
L 561.307143 212.446326 
L 562.062166 287.285514 
L 562.817189 196.78231 
L 563.572212 229.850788 
L 564.327235 252.476589 
L 565.082258 174.156509 
L 565.837281 215.927218 
L 566.592304 235.072127 
L 567.347326 217.667665 
L 568.102349 191.560971 
L 568.857372 80.172412 
L 570.367418 233.331681 
L 571.122441 212.446326 
L 571.877464 248.995697 
L 572.632487 207.224987 
L 573.387509 261.178821 
L 574.142532 174.156509 
L 574.897555 243.774358 
L 575.652578 116.721783 
L 576.407601 295.987745 
L 577.162624 229.850788 
L 577.917647 228.110342 
L 578.67267 193.301417 
L 579.427692 280.323729 
L 580.182715 208.965434 
L 580.937738 95.836429 
L 581.692761 306.430423 
L 582.447784 268.140605 
L 583.202807 121.943122 
L 583.95783 233.331681 
L 584.712853 235.072127 
L 585.467875 255.957482 
L 587.732944 104.53866 
L 588.487967 207.224987 
L 589.24299 108.019552 
L 589.998013 262.919267 
L 590.753036 158.492493 
L 591.508058 229.850788 
L 592.263081 238.553019 
L 593.018104 120.202676 
L 593.773127 130.645353 
L 594.52815 240.293466 
L 595.283173 182.85874 
L 596.038196 238.553019 
L 596.793219 219.408111 
L 597.548241 304.689976 
L 598.303264 228.110342 
L 599.058287 215.927218 
L 599.81331 228.110342 
L 600.568333 262.919267 
L 601.323356 104.53866 
L 602.078379 259.438374 
L 602.833402 235.072127 
L 603.588424 266.400159 
L 604.343447 205.484541 
L 605.09847 193.301417 
L 605.853493 200.263202 
L 606.608516 259.438374 
L 607.363539 224.62945 
L 608.118562 245.514804 
L 608.873585 229.850788 
L 609.628607 200.263202 
L 610.38363 262.919267 
L 611.138653 242.033912 
L 611.893676 242.033912 
L 612.648699 259.438374 
L 614.158745 248.995697 
L 614.913768 245.514804 
L 615.66879 200.263202 
L 616.423813 167.194724 
L 617.178836 266.400159 
L 617.933859 243.774358 
L 618.688882 149.790262 
L 619.443905 132.385799 
L 620.198928 111.500445 
L 620.953951 186.339633 
L 621.708973 236.812573 
L 622.463996 264.659713 
L 623.219019 219.408111 
L 623.974042 208.965434 
L 624.729065 214.186772 
L 625.484088 238.553019 
L 626.239111 153.271154 
L 626.994134 247.255251 
L 627.749156 214.186772 
L 628.504179 202.003649 
L 629.259202 283.804622 
L 630.014225 141.088031 
L 630.769248 76.69152 
L 631.524271 132.385799 
L 632.279294 170.675616 
L 633.034317 222.889003 
L 633.789339 228.110342 
L 634.544362 170.675616 
L 635.299385 229.850788 
L 636.054408 252.476589 
L 636.809431 155.0116 
L 637.564454 135.866692 
L 638.319477 250.736143 
L 639.0745 304.689976 
L 639.829522 208.965434 
L 640.584545 264.659713 
L 641.339568 83.653305 
L 642.094591 151.530708 
L 642.849614 261.178821 
L 643.604637 212.446326 
L 644.35966 247.255251 
L 645.114683 325.575331 
L 645.869705 141.088031 
L 646.624728 257.697928 
L 647.379751 205.484541 
L 648.134774 186.339633 
L 648.889797 198.522756 
L 649.64482 196.78231 
L 650.399843 236.812573 
L 651.154866 179.377848 
L 651.909888 172.416063 
L 652.664911 236.812573 
L 653.419934 148.049815 
L 654.174957 212.446326 
L 654.92998 198.522756 
L 655.685003 266.400159 
L 656.440026 175.896955 
L 657.195049 128.904907 
L 657.950071 250.736143 
L 658.705094 202.003649 
L 659.460117 217.667665 
L 660.21514 210.70588 
L 660.970163 205.484541 
L 661.725186 130.645353 
L 662.480209 198.522756 
L 663.235232 231.591235 
L 663.990254 283.804622 
L 664.745277 222.889003 
L 665.5003 202.003649 
L 666.255323 137.607138 
L 667.010346 261.178821 
L 667.765369 148.049815 
L 668.520392 203.744095 
L 669.275415 198.522756 
L 670.030437 189.820525 
L 670.78546 245.514804 
L 671.540483 97.576875 
L 672.295506 121.943122 
L 673.050529 259.438374 
L 673.805552 235.072127 
L 674.560575 254.217036 
L 675.315598 278.583283 
L 676.825643 163.713832 
L 677.580666 219.408111 
L 678.335689 229.850788 
L 679.090712 228.110342 
L 679.845735 221.148557 
L 680.600758 177.637401 
L 681.355781 118.46223 
L 682.110803 262.919267 
L 682.865826 196.78231 
L 683.620849 214.186772 
L 684.375872 120.202676 
L 685.130895 238.553019 
L 685.885918 240.293466 
L 686.640941 257.697928 
L 687.395964 203.744095 
L 688.150986 309.911315 
L 688.906009 250.736143 
L 689.661032 245.514804 
L 690.416055 214.186772 
L 691.171078 245.514804 
L 691.926101 233.331681 
L 692.681124 179.377848 
L 693.436147 156.752047 
L 694.191169 248.995697 
L 694.946192 167.194724 
L 695.701215 282.064175 
L 696.456238 97.576875 
L 697.966284 186.339633 
L 699.47633 235.072127 
L 700.231352 108.019552 
L 701.741398 200.263202 
L 702.496421 184.599186 
L 703.251444 208.965434 
L 704.006467 238.553019 
L 704.76149 92.355536 
L 705.516513 269.881052 
L 706.271535 127.164461 
L 707.026558 268.140605 
L 707.781581 247.255251 
L 708.536604 210.70588 
L 709.291627 212.446326 
L 710.04665 203.744095 
L 710.801673 261.178821 
L 710.801673 261.178821 
" clip-path="url(#p41850eb23f)" style="fill: none; stroke: #0000ff; stroke-width: 1.5; stroke-linecap: square"/>
   </g>
   <g id="patch_3">
    <path d="M 102.744 440.35776 
L 102.744 59.37408 
" style="fill: none; stroke: #000000; stroke-width: 0.8; stroke-linejoin: miter; stroke-linecap: square"/>
   </g>
   <g id="patch_4">
    <path d="M 739.7568 440.35776 
L 739.7568 59.37408 
" style="fill: none; stroke: #000000; stroke-width: 0.8; stroke-linejoin: miter; stroke-linecap: square"/>
   </g>
   <g id="patch_5">
    <path d="M 102.744 440.35776 
L 739.7568 440.35776 
" style="fill: none; stroke: #000000; stroke-width: 0.8; stroke-linejoin: miter; stroke-linecap: square"/>
   </g>
   <g id="patch_6">
    <path d="M 102.744 59.37408 
L 739.7568 59.37408 
" style="fill: none; stroke: #000000; stroke-width: 0.8; stroke-linejoin: miter; stroke-linecap: square"/>
   </g>
   <g id="text_19">
    <!-- Kevin -->
    <g transform="translate(404.903212 53.37408) scale(0.12 -0.12)">
     <defs>
      <path id="DejaVuSans-4b" d="M 628 4666 
L 1259 4666 
L 1259 2694 
L 3353 4666 
L 4166 4666 
L 1850 2491 
L 4331 0 
L 3500 0 
L 1259 2247 
L 1259 0 
L 628 0 
L 628 4666 
z
" transform="scale(0.015625)"/>
      <path id="DejaVuSans-65" d="M 3597 1894 
L 3597 1613 
L 953 1613 
Q 991 1019 1311 708 
Q 1631 397 2203 397 
Q 2534 397 2845 478 
Q 3156 559 3463 722 
L 3463 178 
Q 3153 47 2828 -22 
Q 2503 -91 2169 -91 
Q 1331 -91 842 396 
Q 353 884 353 1716 
Q 353 2575 817 3079 
Q 1281 3584 2069 3584 
Q 2775 3584 3186 3129 
Q 3597 2675 3597 1894 
z
M 3022 2063 
Q 3016 2534 2758 2815 
Q 2500 3097 2075 3097 
Q 1594 3097 1305 2825 
Q 1016 2553 972 2059 
L 3022 2063 
z
" transform="scale(0.015625)"/>
      <path id="DejaVuSans-76" d="M 191 3500 
L 800 3500 
L 1894 563 
L 2988 3500 
L 3597 3500 
L 2284 0 
L 1503 0 
L 191 3500 
z
" transform="scale(0.015625)"/>
      <path id="DejaVuSans-69" d="M 603 3500 
L 1178 3500 
L 1178 0 
L 603 0 
L 603 3500 
z
M 603 4863 
L 1178 4863 
L 1178 4134 
L 603 4134 
L 603 4863 
z
" transform="scale(0.015625)"/>
      <path id="DejaVuSans-6e" d="M 3513 2113 
L 3513 0 
L 2938 0 
L 2938 2094 
Q 2938 2591 2744 2837 
Q 2550 3084 2163 3084 
Q 1697 3084 1428 2787 
Q 1159 2491 1159 1978 
L 1159 0 
L 581 0 
L 581 3500 
L 1159 3500 
L 1159 2956 
Q 1366 3272 1645 3428 
Q 1925 3584 2291 3584 
Q 2894 3584 3203 3211 
Q 3513 2838 3513 2113 
z
" transform="scale(0.015625)"/>
     </defs>
     <use xlink:href="#DejaVuSans-4b"/>
     <use xlink:href="#DejaVuSans-65" x="60.576172"/>
     <use xlink:href="#DejaVuSans-76" x="122.099609"/>
     <use xlink:href="#DejaVuSans-69" x="181.279297"/>
     <use xlink:href="#DejaVuSans-6e" x="209.0625"/>
    </g>
   </g>
   <g id="legend_1">
    <g id="patch_7">
     <path d="M 660.91305 96.73033 
L 732.7568 96.73033 
Q 734.7568 96.73033 734.7568 94.73033 
L 734.7568 66.37408 
Q 734.7568 64.37408 732.7568 64.37408 
L 660.91305 64.37408 
Q 658.91305 64.37408 658.91305 66.37408 
L 658.91305 94.73033 
Q 658.91305 96.73033 660.91305 96.73033 
z
" style="fill: #ffffff; opacity: 0.8; stroke: #cccccc; stroke-linejoin: miter"/>
    </g>
    <g id="line2d_21">
     <path d="M 662.91305 72.472517 
L 672.91305 72.472517 
L 682.91305 72.472517 
" style="fill: none; stroke: #ff0000; stroke-width: 1.5; stroke-linecap: square"/>
    </g>
    <g id="text_20">
     <!-- BMI -->
     <g transform="translate(690.91305 75.972517) scale(0.1 -0.1)">
      <defs>
       <path id="DejaVuSans-42" d="M 1259 2228 
L 1259 519 
L 2272 519 
Q 2781 519 3026 730 
Q 3272 941 3272 1375 
Q 3272 1813 3026 2020 
Q 2781 2228 2272 2228 
L 1259 2228 
z
M 1259 4147 
L 1259 2741 
L 2194 2741 
Q 2656 2741 2882 2914 
Q 3109 3088 3109 3444 
Q 3109 3797 2882 3972 
Q 2656 4147 2194 4147 
L 1259 4147 
z
M 628 4666 
L 2241 4666 
Q 2963 4666 3353 4366 
Q 3744 4066 3744 3513 
Q 3744 3084 3544 2831 
Q 3344 2578 2956 2516 
Q 3422 2416 3680 2098 
Q 3938 1781 3938 1306 
Q 3938 681 3513 340 
Q 3088 0 2303 0 
L 628 0 
L 628 4666 
z
" transform="scale(0.015625)"/>
       <path id="DejaVuSans-4d" d="M 628 4666 
L 1569 4666 
L 2759 1491 
L 3956 4666 
L 4897 4666 
L 4897 0 
L 4281 0 
L 4281 4097 
L 3078 897 
L 2444 897 
L 1241 4097 
L 1241 0 
L 628 0 
L 628 4666 
z
" transform="scale(0.015625)"/>
       <path id="DejaVuSans-49" d="M 628 4666 
L 1259 4666 
L 1259 0 
L 628 0 
L 628 4666 
z
" transform="scale(0.015625)"/>
      </defs>
      <use xlink:href="#DejaVuSans-42"/>
      <use xlink:href="#DejaVuSans-4d" x="68.603516"/>
      <use xlink:href="#DejaVuSans-49" x="154.882812"/>
     </g>
    </g>
    <g id="line2d_22">
     <path d="M 662.91305 87.150643 
L 672.91305 87.150643 
L 682.91305 87.150643 
" style="fill: none; stroke: #0000ff; stroke-width: 1.5; stroke-linecap: square"/>
    </g>
    <g id="text_21">
     <!-- Glucose -->
     <g transform="translate(690.91305 90.650643) scale(0.1 -0.1)">
      <defs>
       <path id="DejaVuSans-47" d="M 3809 666 
L 3809 1919 
L 2778 1919 
L 2778 2438 
L 4434 2438 
L 4434 434 
Q 4069 175 3628 42 
Q 3188 -91 2688 -91 
Q 1594 -91 976 548 
Q 359 1188 359 2328 
Q 359 3472 976 4111 
Q 1594 4750 2688 4750 
Q 3144 4750 3555 4637 
Q 3966 4525 4313 4306 
L 4313 3634 
Q 3963 3931 3569 4081 
Q 3175 4231 2741 4231 
Q 1884 4231 1454 3753 
Q 1025 3275 1025 2328 
Q 1025 1384 1454 906 
Q 1884 428 2741 428 
Q 3075 428 3337 486 
Q 3600 544 3809 666 
z
" transform="scale(0.015625)"/>
       <path id="DejaVuSans-6c" d="M 603 4863 
L 1178 4863 
L 1178 0 
L 603 0 
L 603 4863 
z
" transform="scale(0.015625)"/>
       <path id="DejaVuSans-75" d="M 544 1381 
L 544 3500 
L 1119 3500 
L 1119 1403 
Q 1119 906 1312 657 
Q 1506 409 1894 409 
Q 2359 409 2629 706 
Q 2900 1003 2900 1516 
L 2900 3500 
L 3475 3500 
L 3475 0 
L 2900 0 
L 2900 538 
Q 2691 219 2414 64 
Q 2138 -91 1772 -91 
Q 1169 -91 856 284 
Q 544 659 544 1381 
z
M 1991 3584 
L 1991 3584 
z
" transform="scale(0.015625)"/>
       <path id="DejaVuSans-63" d="M 3122 3366 
L 3122 2828 
Q 2878 2963 2633 3030 
Q 2388 3097 2138 3097 
Q 1578 3097 1268 2742 
Q 959 2388 959 1747 
Q 959 1106 1268 751 
Q 1578 397 2138 397 
Q 2388 397 2633 464 
Q 2878 531 3122 666 
L 3122 134 
Q 2881 22 2623 -34 
Q 2366 -91 2075 -91 
Q 1284 -91 818 406 
Q 353 903 353 1747 
Q 353 2603 823 3093 
Q 1294 3584 2113 3584 
Q 2378 3584 2631 3529 
Q 2884 3475 3122 3366 
z
" transform="scale(0.015625)"/>
       <path id="DejaVuSans-6f" d="M 1959 3097 
Q 1497 3097 1228 2736 
Q 959 2375 959 1747 
Q 959 1119 1226 758 
Q 1494 397 1959 397 
Q 2419 397 2687 759 
Q 2956 1122 2956 1747 
Q 2956 2369 2687 2733 
Q 2419 3097 1959 3097 
z
M 1959 3584 
Q 2709 3584 3137 3096 
Q 3566 2609 3566 1747 
Q 3566 888 3137 398 
Q 2709 -91 1959 -91 
Q 1206 -91 779 398 
Q 353 888 353 1747 
Q 353 2609 779 3096 
Q 1206 3584 1959 3584 
z
" transform="scale(0.015625)"/>
       <path id="DejaVuSans-73" d="M 2834 3397 
L 2834 2853 
Q 2591 2978 2328 3040 
Q 2066 3103 1784 3103 
Q 1356 3103 1142 2972 
Q 928 2841 928 2578 
Q 928 2378 1081 2264 
Q 1234 2150 1697 2047 
L 1894 2003 
Q 2506 1872 2764 1633 
Q 3022 1394 3022 966 
Q 3022 478 2636 193 
Q 2250 -91 1575 -91 
Q 1294 -91 989 -36 
Q 684 19 347 128 
L 347 722 
Q 666 556 975 473 
Q 1284 391 1588 391 
Q 1994 391 2212 530 
Q 2431 669 2431 922 
Q 2431 1156 2273 1281 
Q 2116 1406 1581 1522 
L 1381 1569 
Q 847 1681 609 1914 
Q 372 2147 372 2553 
Q 372 3047 722 3315 
Q 1072 3584 1716 3584 
Q 2034 3584 2315 3537 
Q 2597 3491 2834 3397 
z
" transform="scale(0.015625)"/>
      </defs>
      <use xlink:href="#DejaVuSans-47"/>
      <use xlink:href="#DejaVuSans-6c" x="77.490234"/>
      <use xlink:href="#DejaVuSans-75" x="105.273438"/>
      <use xlink:href="#DejaVuSans-63" x="168.652344"/>
      <use xlink:href="#DejaVuSans-6f" x="223.632812"/>
      <use xlink:href="#DejaVuSans-73" x="284.814453"/>
      <use xlink:href="#DejaVuSans-65" x="336.914062"/>
     </g>
    </g>
   </g>
  </g>
 </g>
 <defs>
  <clipPath id="p41850eb23f">
   <rect x="102.744" y="59.37408" width="637.0128" height="380.98368"/>
  </clipPath>
 </defs>
</svg>
